<svg width="0" height="0" class="hidden" xmlns="http://www.w3.org/2000/svg">
  <symbol viewBox="0 0 16 16" id="arrow-forward">
    <path fill-rule="evenodd" clip-rule="evenodd" d="m9.343 15.071 6.364-6.364a1 1 0 0 0 0-1.414L9.343.93A1 1 0 0 0 7.93 2.343L12.586 7H1a1 1 0 1 0 0 2h11.586l-4.657 4.657a1 1 0 1 0 1.414 1.414Z"/>
  </symbol>
  <symbol viewBox="0 0 17 16" id="arrow-back">
    <path fill-rule="evenodd" clip-rule="evenodd" d="M7.157 15.071.793 8.707a1 1 0 0 1 0-1.414L7.157.93A1 1 0 0 1 8.57 2.343L3.914 7H15.5a1 1 0 1 1 0 2H3.914l4.657 4.657a1 1 0 1 1-1.414 1.414Z"/>
  </symbol>
  <symbol viewBox="0 0 20 16" id="volume-button">
    <path d="M10.43.1a1 1 0 0 0-1 .12L4.65 4H1a1 1 0 0 0-1 1v6a1 1 0 0 0 1 1h3.65l4.73 3.78A1 1 0 0 0 10 16a.909.909 0 0 0 .43-.1A1 1 0 0 0 11 15V1a1 1 0 0 0-.57-.9ZM9 12.92l-3.38-2.7A1 1 0 0 0 5 10H2V6h3a1 1 0 0 0 .62-.22L9 3.08v9.84ZM13.14.09a1.01 1.01 0 1 0-.28 2 6 6 0 0 1 0 11.86 1.003 1.003 0 0 0 .14 2h.14a8 8 0 0 0 0-15.82V.09Zm-.46 9.78a1.012 1.012 0 1 0 .32 2c.108-.001.216-.018.32-.05a4 4 0 0 0 0-7.54 1.002 1.002 0 0 0-.64 1.9 2 2 0 0 1 0 3.74v-.05Z"></path>
  </symbol>
  <symbol viewBox="0 0 20 20" id="checkbox-no-checked">
    <path fill-rule="evenodd" clip-rule="evenodd" d="M16 2H4a2 2 0 0 0-2 2v12a2 2 0 0 0 2 2h12a2 2 0 0 0 2-2V4a2 2 0 0 0-2-2ZM4 0a4 4 0 0 0-4 4v12a4 4 0 0 0 4 4h12a4 4 0 0 0 4-4V4a4 4 0 0 0-4-4H4Z"></path>
  </symbol>
  <symbol viewBox="0 0 24 24" id="icon-repeat">
    <path d="M19.91 15.51h-4.53a1 1 0 0 0 0 2h2.4A8 8 0 0 1 4 12a1 1 0 1 0-2 0 10 10 0 0 0 16.88 7.23V21a1 1 0 0 0 2 0v-4.5a1 1 0 0 0-.97-.99ZM12 2a10 10 0 0 0-6.88 2.77V3a1 1 0 0 0-2 0v4.5a1 1 0 0 0 1 1h4.5a1 1 0 0 0 0-2h-2.4A8 8 0 0 1 20 12a1 1 0 0 0 2 0A10 10 0 0 0 12 2Z"></path>
  </symbol>
  <symbol viewBox="0 0 24 24" id="icon-time">
    <path d="M19 21h-1v-1.667a4.998 4.998 0 0 0-.3-1.678.958.958 0 0 0-.035-.084A4.976 4.976 0 0 0 17 16.334l-1.4-1.867a3.02 3.02 0 0 1-.6-1.801v-1.01a3.021 3.021 0 0 1 .878-2.12l.658-.658a4.946 4.946 0 0 0 1.396-2.838c0-.014.008-.026.008-.04l-.003-.014c.035-.213.056-.428.063-.643V3h1a1 1 0 1 0 0-2H5a1 1 0 0 0 0 2h1v2.343c.007.215.028.43.063.643L6.06 6c0 .014.008.026.008.04a4.946 4.946 0 0 0 1.396 2.838l.658.657A3.02 3.02 0 0 1 9 11.656v1.01a3.022 3.022 0 0 1-.6 1.8L7 16.335a4.983 4.983 0 0 0-.665 1.237.968.968 0 0 0-.035.084 5.003 5.003 0 0 0-.3 1.678V21H5a1 1 0 0 0 0 2h14a1 1 0 0 0 0-2ZM8 5V3h8v2H8Zm.878 2.464A2.97 2.97 0 0 1 8.502 7h6.996a2.97 2.97 0 0 1-.376.464l-.658.657A4.96 4.96 0 0 0 13.043 11h-2.085a4.96 4.96 0 0 0-1.422-2.879l-.658-.657Zm1.123 8.202c.578-.775.921-1.7.988-2.666h2.022c.067.965.41 1.89.989 2.666L15 17H9l1-1.334ZM16 21H8v-1.667c.003-.111.012-.223.027-.333h7.946c.015.11.024.222.027.333V21Z"></path>
  </symbol>
  <symbol viewBox="0 0 16 20" id="lesson">
    <path d="M16 6.94a1.307 1.307 0 0 0-.06-.27v-.09a1.07 1.07 0 0 0-.19-.28l-6-6a1.07 1.07 0 0 0-.28-.19h-.09L9.06 0H3a3 3 0 0 0-3 3v14a3 3 0 0 0 3 3h10a3 3 0 0 0 3-3V6.94Zm-6-3.53L12.59 6H10V3.41ZM14 17a1 1 0 0 1-1 1H3a1 1 0 0 1-1-1V3a1 1 0 0 1 1-1h5v5a1 1 0 0 0 1 1h5v9Z"></path>
  </symbol>
  <symbol viewBox="0 0 21 17" id="logo_courses">
    <path d="m20.49 6.19-1-.55-9-5h-.11a1.06 1.06 0 0 0-.19-.06h-.37a1.17 1.17 0 0 0-.2.06h-.11l-9 5a1 1 0 0 0 0 1.74L3 8.76v4.74a3 3 0 0 0 3 3h8a3 3 0 0 0 3-3V8.76l2-1.12v2.86a1 1 0 1 0 2 0V7.06a1 1 0 0 0-.51-.87ZM15 13.5a1 1 0 0 1-1 1H6a1 1 0 0 1-1-1V9.87l4.51 2.5.15.06h.09c.083.01.167.01.25 0 .083.01.167.01.25 0h.09a.47.47 0 0 0 .15-.06L15 9.87v3.63Zm-5-3.14L3.06 6.5 10 2.64l6.94 3.86L10 10.36Z"></path>
  </symbol>
  <symbol viewBox="0 0 20 20" id="logo_profile">
    <path d="M10 0a10 10 0 0 0-7.35 16.76 10.001 10.001 0 0 0 14.7 0A10 10 0 0 0 10 0Zm0 18a8 8 0 0 1-5.55-2.25 6 6 0 0 1 11.1 0A8 8 0 0 1 10 18ZM8 8a2 2 0 1 1 4 0 2 2 0 0 1-4 0Zm8.91 6A8 8 0 0 0 13 10.62a4 4 0 1 0-6 0A8 8 0 0 0 3.09 14 7.92 7.92 0 0 1 2 10a8 8 0 1 1 16 0 7.92 7.92 0 0 1-1.09 4Z"></path>
  </symbol>
  <symbol viewBox="0 0 17 18" id="play-button">
    <path d="M15.241 5.999 5.287.459A3.607 3.607 0 0 0 3.515 0a3.606 3.606 0 0 0-1.77.468A3.472 3.472 0 0 0 .457 1.735 3.342 3.342 0 0 0 0 3.46v11.12A3.37 3.37 0 0 0 1.032 17 3.58 3.58 0 0 0 3.524 18a3.618 3.618 0 0 0 1.763-.46L15.24 12c.535-.301.979-.733 1.288-1.252a3.343 3.343 0 0 0 0-3.417c-.309-.52-.753-1.032-1.288-1.332Z"></path>
  </symbol>
  <symbol viewBox="0 0 12 8" id="sidebar_close-option">
    <path d="M11 1.17a1 1 0 0 0-1.41 0L6 4.71 2.46 1.17a1 1 0 1 0-1.41 1.42l4.24 4.24a1 1 0 0 0 1.42 0L11 2.59a1 1 0 0 0 0-1.42Z"></path>
  </symbol>
  <symbol viewBox="0 0 12 8" id="sidebar_open-option">
    <path d="M11 6.835a1 1 0 0 1-1.41 0L6 3.295l-3.54 3.54a1 1 0 1 1-1.41-1.42l4.24-4.24a1 1 0 0 1 1.42 0L11 5.415a1.001 1.001 0 0 1 0 1.42Z"></path>
  </symbol>
  <symbol viewBox="0 0 16 20" id="test">
    <path d="M16 6.94a1.307 1.307 0 0 0-.06-.27v-.09a1.07 1.07 0 0 0-.19-.28l-6-6a1.07 1.07 0 0 0-.28-.19.32.32 0 0 0-.09 0A.88.88 0 0 0 9.05 0H3a3 3 0 0 0-3 3v14a3 3 0 0 0 3 3h10a3 3 0 0 0 3-3V6.94Zm-6-3.53L12.59 6H11a1 1 0 0 1-1-1V3.41ZM14 17a1 1 0 0 1-1 1H3a1 1 0 0 1-1-1V3a1 1 0 0 1 1-1h5v3a3 3 0 0 0 3 3h3v9Zm-3.71-6.71L7 13.59l-1.29-1.3a1.004 1.004 0 1 0-1.42 1.42l2 2a1 1 0 0 0 1.42 0l4-4a1.004 1.004 0 1 0-1.42-1.42Z"></path>
  </symbol>
  <symbol viewBox="0 0 20 12" id="vebinar">
    <path fill-rule="evenodd" clip-rule="evenodd" d="M18 10h1a1 1 0 0 1 1 1v2a3 3 0 0 1-3 3H3a3 3 0 0 1-3-3v-2a1 1 0 0 1 1-1h1V3a3 3 0 0 1 3-3h10a3 3 0 0 1 3 3v7ZM4.293 2.293A1 1 0 0 0 4 3v7h.26a3.48 3.48 0 0 1 .286-.472 5.37 5.37 0 0 1 1.248-1.217A6.975 6.975 0 0 1 8.039 7.26C7.42 6.777 7 6.024 7 5a3 3 0 0 1 6 0c0 1.024-.42 1.777-1.039 2.26a6.974 6.974 0 0 1 2.245 1.051c.514.367.941.787 1.248 1.217.103.144.202.303.287.472H16V3a1 1 0 0 0-1-1H5a1 1 0 0 0-.707.293ZM13.127 10a4.217 4.217 0 0 0-.083-.061C12.324 9.425 11.276 9 10 9s-2.325.425-3.044.939L6.873 10h6.254ZM18 12v1a1 1 0 0 1-1 1H3a1 1 0 0 1-1-1v-1h16Zm-7-7a1 1 0 1 1-2 0 1 1 0 0 1 2 0Z"></path>
  </symbol>
  <symbol viewBox="0 0 20 12" id="video">
    <path d="M19.53 1.15a1 1 0 0 0-1 0L15 2.89A3 3 0 0 0 12 0H3a3 3 0 0 0-3 3v6a3 3 0 0 0 3 3h9a3 3 0 0 0 3-2.89l3.56 1.78A1 1 0 0 0 19 11a1 1 0 0 0 .875-.514A1 1 0 0 0 20 10V2a1 1 0 0 0-.47-.85ZM13 9a1 1 0 0 1-1 1H3a1 1 0 0 1-1-1V3a1 1 0 0 1 1-1h9a1 1 0 0 1 1 1v6Zm5-.62-3-1.5V5.12l3-1.5v4.76Z"></path>
  </symbol>
  <symbol viewBox="0 0 7 12" id="arrow-right">
    <path d="M.29 10.978a1 1 0 0 1 0-1.41l3.54-3.59-3.54-3.54a1 1 0 1 1 1.42-1.41l4.24 4.24a1 1 0 0 1 0 1.42l-4.24 4.29a.998.998 0 0 1-1.42 0Z"></path>
  </symbol>
  <symbol viewBox="0 0 20 20" id="checkbox-checked">
    <path fill-rule="evenodd" clip-rule="evenodd" d="M16 2H4a2 2 0 0 0-2 2v12a2 2 0 0 0 2 2h12a2 2 0 0 0 2-2V4a2 2 0 0 0-2-2ZM4 0a4 4 0 0 0-4 4v12a4 4 0 0 0 4 4h12a4 4 0 0 0 4-4V4a4 4 0 0 0-4-4H4Z"></path>
    <path d="M8.536 12.969a1 1 0 0 1-.326-.219l-1.92-1.92a1.004 1.004 0 1 1 1.42-1.42l1.21 1.22 3.37-3.38a1.004 1.004 0 0 1 1.42 1.42l-4.08 4.08a1 1 0 0 1-1.094.219Z"></path>
  </symbol>
  <symbol viewBox="0 0 20 20" id="done">
    <path d="M10 0C4.5 0 0 4.5 0 10s4.5 10 10 10 10-4.5 10-10S15.5 0 10 0Zm4.2 8.3-4.8 4.8c-.4.4-1 .4-1.4 0l-2.2-2.2c-.4-.4-.4-1 0-1.4.4-.4 1-.4 1.4 0L8.7 11l4.1-4.1c.4-.4 1-.4 1.4 0 .4.4.4 1 0 1.4Z"></path>
  </symbol>
  <symbol viewBox="0 0 20 20" id="fullscreen-button">
    <path d="M6 13H1c-.6 0-1 .4-1 1s.4 1 1 1h4v4c0 .6.4 1 1 1s1-.4 1-1v-5c0-.6-.4-1-1-1ZM6 0c-.6 0-1 .4-1 1v4H1c-.6 0-1 .4-1 1s.4 1 1 1h5c.6 0 1-.4 1-1V1c0-.6-.4-1-1-1Zm8 7h5c.6 0 1-.4 1-1s-.4-1-1-1h-4V1c0-.6-.4-1-1-1s-1 .4-1 1v5c0 .6.4 1 1 1Zm5 6h-5c-.6 0-1 .4-1 1v5c0 .6.4 1 1 1s1-.4 1-1v-4h4c.6 0 1-.4 1-1s-.4-1-1-1Z"></path>
  </symbol>
  <symbol viewBox="0 0 24 24" id="icon-check">
    <path d="M18.71 7.21a.999.999 0 0 0-1.42 0l-7.45 7.46-3.13-3.14A1.02 1.02 0 1 0 5.29 13l3.84 3.84a1 1 0 0 0 1.42 0l8.16-8.16a.999.999 0 0 0 0-1.47Z"></path>
  </symbol>
</svg>
